<?xml version="1.0" standalone="no"?>
<!DOCTYPE svg PUBLIC "-//W3C//DTD SVG 20010904//EN"
 "http://www.w3.org/TR/2001/REC-SVG-20010904/DTD/svg10.dtd">
<svg version="1.0" xmlns="http://www.w3.org/2000/svg"
 width="800.000000pt" height="284.000000pt" viewBox="0 0 800.000000 284.000000"
 preserveAspectRatio="xMidYMid meet">

<g transform="translate(0.000000,284.000000) scale(0.100000,-0.100000)"
fill="#000000" stroke="none">
<path d="M4525 1570 c-44 -10 -69 -25 -103 -64 -101 -115 -12 -302 143 -300
132 2 220 132 169 252 -34 83 -125 132 -209 112z"/>
<path d="M5105 1575 c-5 -2 -22 -6 -37 -9 -37 -8 -98 -63 -114 -103 -31 -73
-11 -157 49 -210 32 -28 90 -53 122 -53 32 0 90 25 122 53 119 105 62 295 -97
320 -19 3 -39 4 -45 2z"/>
<path d="M3915 1551 c-64 -40 -95 -92 -95 -161 0 -70 39 -133 102 -166 42 -22
126 -18 173 9 114 65 114 246 -1 313 -52 30 -135 33 -179 5z"/>
</g>
</svg>
